<?xml version="1.0" encoding="UTF-8" standalone="no"?>
<!DOCTYPE svg PUBLIC "-//W3C//DTD SVG 1.1//EN" "http://www.w3.org/Graphics/SVG/1.1/DTD/svg11.dtd">
<!-- Created with Vectornator (http://vectornator.io/) -->
<svg height="100%" stroke-miterlimit="10"
  style="fill-rule:nonzero;clip-rule:evenodd;stroke-linecap:round;stroke-linejoin:round;" version="1.1"
  viewBox="0 0 3024 1964" width="100%" xml:space="preserve" xmlns="http://www.w3.org/2000/svg"
  xmlns:xlink="http://www.w3.org/1999/xlink">
  <defs>
    <linearGradient gradientTransform="matrix(1.29199 0 0 1.29199 -502.839 -346.832)" gradientUnits="userSpaceOnUse"
      id="LinearGradient" x1="717.876" x2="1248.14" y1="602.523" y2="602.523">
      <stop offset="0" stop-color="#000000" />
      <stop offset="1" stop-color="#1ec3ca" />
    </linearGradient>
    <linearGradient gradientTransform="matrix(42.211 0 0 42.211 320.169 25.4671)" gradientUnits="userSpaceOnUse"
      id="LinearGradient_2" x1="60.0127" x2="-1.96853e-06" y1="-2.17168" y2="31.7322">
      <stop offset="0" stop-color="#ff5caa" />
      <stop offset="1" stop-color="#ff4e62" />
    </linearGradient>
    <linearGradient gradientTransform="matrix(42.211 0 0 42.211 316.9 25.4671)" gradientUnits="userSpaceOnUse"
      id="LinearGradient_3" x1="60.0127" x2="-1.96853e-06" y1="-2.17168" y2="31.7322">
      <stop offset="0" stop-color="#ff5caa" />
      <stop offset="1" stop-color="#ff4e62" />
    </linearGradient>
    <linearGradient gradientTransform="matrix(42.211 0 0 42.211 316.9 25.4671)" gradientUnits="userSpaceOnUse"
      id="LinearGradient_4" x1="60.0127" x2="-1.96853e-06" y1="-2.17168" y2="31.7322">
      <stop offset="0" stop-color="#ff5caa" />
      <stop offset="1" stop-color="#ff4e62" />
    </linearGradient>
    <linearGradient gradientTransform="matrix(1.29199 0 0 1.29199 -502.839 -346.832)" gradientUnits="userSpaceOnUse"
      id="LinearGradient_5" x1="717.566" x2="2530.55" y1="1071.73" y2="1071.73">
      <stop offset="0.0208911" stop-color="#1a7074" />
      <stop offset="1" stop-color="#0ed6df" />
    </linearGradient>
  </defs>
  <g id="temples">
    <g opacity="1">
      <path d="M580.68 707.297L1081.18 248.035L1025.25 155.943L424.649 707.297" fill="url(#LinearGradient)"
        fill-rule="nonzero" opacity="1" stroke="none" />
      <path d="M2766.61 707.297L2276.22 257.45L2207.24 332.643L2615.89 707.297" fill="#1ec3ca" fill-rule="nonzero"
        opacity="1" stroke="none" />
    </g>
  </g>
  <g id="logo">
    <path
      d="M636.847 713.645L788.184 326.44C854.139 157.696 1016.79 46.6344 1197.96 46.6344L1480.12 46.6344L1012.11 1244.08C946.154 1412.82 783.503 1523.89 602.329 1523.89L320.169 1523.89L636.847 713.645"
      fill="url(#LinearGradient_2)" fill-rule="nonzero" opacity="1" stroke="none" />
    <path
      d="M1003.5 1523.89L1471.51 326.443C1537.47 157.699 1700.12 46.6379 1881.29 46.6379L2163.45 46.6379L1695.44 1244.08C1629.49 1412.83 1466.83 1523.89 1285.66 1523.89L1003.5 1523.89Z"
      fill="url(#LinearGradient_3)" fill-rule="nonzero" opacity="1" stroke="none" />
    <path
      d="M1690.14 1523.89L2158.15 326.443C2224.1 157.699 2386.75 46.6379 2567.93 46.6379L2850.09 46.6379L2382.07 1244.08C2316.12 1412.83 2153.47 1523.89 1972.3 1523.89L1690.14 1523.89Z"
      fill="url(#LinearGradient_4)" fill-rule="nonzero" opacity="1" stroke="none" />
  </g>
  <g id="text">
    <path
      d="M524.871 1648.76C541.659 1648.76 555.509 1654.64 567.26 1666.39C579.012 1678.14 584.887 1692.41 584.887 1708.78L584.887 1916.95L372.101 1916.95C355.314 1916.95 341.464 1911.07 329.712 1899.32C317.961 1887.57 312.085 1873.3 312.085 1856.93L312.085 1757.88L534.944 1757.88L534.944 1708.78C534.944 1705.84 534.104 1703.74 532.006 1701.64C529.907 1699.54 527.809 1698.7 524.871 1698.7L312.085 1698.7L312.085 1648.76C312.085 1648.76 524.871 1648.76 524.871 1648.76ZM534.944 1867L534.944 1807.82L362.029 1807.82L362.029 1856.93C362.029 1859.87 362.868 1861.97 364.967 1864.06C367.065 1866.16 369.164 1867 372.101 1867C372.101 1867 534.944 1867 534.944 1867ZM1016.34 1648.76L1069.64 1648.76L968.91 1916.95L928.199 1916.95L837.964 1717.59L752.766 1916.95L751.927 1916.53L752.346 1916.95L712.055 1916.95L606.712 1648.76L659.593 1648.76L732.201 1826.71L809.425 1648.76L866.504 1648.76L948.344 1826.71C948.344 1826.71 1016.34 1648.76 1016.34 1648.76ZM1298.37 1648.76C1315.16 1648.76 1329.01 1654.64 1340.76 1666.39C1352.51 1678.14 1358.39 1692.41 1358.39 1708.78L1358.39 1807.82L1135.53 1807.82L1135.53 1856.93C1135.53 1859.87 1136.37 1861.97 1138.47 1864.06C1140.57 1866.16 1142.66 1867 1145.6 1867L1358.39 1867L1358.39 1916.95L1145.6 1916.95C1128.81 1916.95 1114.96 1911.07 1103.21 1899.32C1091.46 1887.57 1085.59 1873.3 1085.59 1856.93L1085.59 1708.78C1085.59 1691.99 1091.46 1678.14 1103.21 1666.39C1114.96 1654.64 1129.23 1648.76 1145.6 1648.76C1145.6 1648.76 1298.37 1648.76 1298.37 1648.76ZM1135.53 1757.88L1308.44 1757.88L1308.44 1708.78C1308.44 1705.84 1307.6 1703.74 1305.51 1701.64C1303.41 1699.54 1301.31 1698.7 1298.37 1698.7L1145.6 1698.7C1142.66 1698.7 1140.57 1699.54 1138.47 1701.64C1136.37 1703.74 1135.53 1705.84 1135.53 1708.78C1135.53 1708.78 1135.53 1757.88 1135.53 1757.88ZM1676.94 1709.2L1676.94 1719.27L1626.99 1719.27L1626.99 1709.2C1626.99 1706.26 1626.15 1704.16 1624.06 1702.06C1621.96 1699.96 1619.86 1699.12 1616.92 1699.12L1464.15 1699.12C1461.21 1699.12 1459.11 1699.96 1457.02 1702.06C1454.92 1704.16 1454.08 1706.26 1454.08 1709.2L1454.08 1748.23C1454.08 1751.17 1454.92 1753.26 1457.02 1755.36C1459.11 1757.46 1461.21 1758.3 1464.15 1758.3L1616.92 1758.3C1633.71 1758.3 1647.56 1764.18 1659.31 1775.93C1671.06 1787.68 1676.94 1801.95 1676.94 1818.32L1676.94 1857.35C1676.94 1874.14 1671.06 1887.99 1659.31 1899.74C1647.56 1911.49 1633.29 1917.37 1616.92 1917.37L1464.15 1917.37C1447.36 1917.37 1433.51 1911.49 1421.76 1899.74C1410.01 1887.99 1404.13 1873.72 1404.13 1857.35L1404.13 1847.28L1454.08 1847.28L1454.08 1857.35C1454.08 1860.29 1454.92 1862.39 1457.02 1864.48C1459.11 1866.58 1461.21 1867.42 1464.15 1867.42L1616.92 1867.42C1619.86 1867.42 1621.96 1866.58 1624.06 1864.48C1626.15 1862.39 1626.99 1860.29 1626.99 1857.35L1626.99 1818.32C1626.99 1815.38 1626.15 1813.28 1624.06 1811.18C1621.96 1809.08 1619.86 1808.24 1616.92 1808.24L1464.15 1808.24C1447.36 1808.24 1433.51 1802.37 1421.76 1790.62C1410.01 1778.87 1404.13 1764.6 1404.13 1748.23L1404.13 1709.2C1404.13 1692.41 1410.01 1678.56 1421.76 1666.81C1433.51 1655.06 1447.78 1649.18 1464.15 1649.18L1616.92 1649.18C1633.71 1649.18 1647.56 1655.06 1659.31 1666.81C1671.06 1678.14 1676.94 1692.41 1676.94 1709.2ZM1782.7 1648.76L1935.47 1648.76C1952.26 1648.76 1966.11 1654.64 1977.86 1666.39C1989.61 1678.14 1995.49 1692.41 1995.49 1708.78L1995.49 1856.93C1995.49 1873.72 1989.61 1887.57 1977.86 1899.32C1966.11 1911.07 1951.84 1916.95 1935.47 1916.95L1782.7 1916.95C1765.91 1916.95 1752.06 1911.07 1740.31 1899.32C1728.56 1887.57 1722.68 1873.3 1722.68 1856.93L1722.68 1708.78C1722.68 1691.99 1728.56 1678.14 1740.31 1666.39C1752.06 1654.64 1766.33 1648.76 1782.7 1648.76ZM1935.47 1698.7L1782.7 1698.7C1779.76 1698.7 1777.66 1699.54 1775.57 1701.64C1773.47 1703.74 1772.63 1705.84 1772.63 1708.78L1772.63 1856.93C1772.63 1859.87 1773.47 1861.97 1775.57 1864.06C1777.66 1866.16 1779.76 1867 1782.7 1867L1935.47 1867C1938.41 1867 1940.51 1866.16 1942.61 1864.06C1944.7 1861.97 1945.54 1859.87 1945.54 1856.93L1945.54 1708.78C1945.54 1705.84 1944.7 1703.74 1942.61 1701.64C1940.51 1699.96 1938.41 1698.7 1935.47 1698.7ZM2386.64 1648.76C2403.43 1648.76 2417.28 1654.64 2429.03 1666.39C2440.78 1678.14 2446.66 1692.41 2446.66 1708.78L2446.66 1916.95L2397.14 1916.95L2397.14 1708.78C2397.14 1705.84 2396.3 1703.74 2394.2 1701.64C2392.1 1699.54 2389.58 1698.7 2386.64 1698.7L2280.88 1698.7C2277.94 1698.7 2275.84 1699.54 2273.75 1701.64C2271.65 1703.74 2270.81 1705.84 2270.81 1708.78L2270.81 1916.95L2220.86 1916.95L2220.86 1708.78C2220.86 1705.84 2220.02 1703.74 2217.93 1701.64C2215.83 1699.54 2213.73 1698.7 2210.79 1698.7L2104.61 1698.7C2101.67 1698.7 2099.57 1699.54 2097.47 1701.64C2095.37 1703.74 2094.54 1705.84 2094.54 1708.78L2094.54 1916.95L2044.59 1916.95L2044.59 1648.76C2044.59 1648.76 2386.64 1648.76 2386.64 1648.76ZM2707.71 1648.76C2724.5 1648.76 2738.35 1654.64 2750.1 1666.39C2761.85 1678.14 2767.73 1692.41 2767.73 1708.78L2767.73 1807.82L2544.87 1807.82L2544.87 1856.93C2544.87 1859.87 2545.71 1861.97 2547.81 1864.06C2549.91 1866.16 2552 1867 2554.94 1867L2767.73 1867L2767.73 1916.95L2554.94 1916.95C2538.15 1916.95 2524.3 1911.07 2512.55 1899.32C2500.8 1887.57 2494.93 1873.3 2494.93 1856.93L2494.93 1708.78C2494.93 1691.99 2500.8 1678.14 2512.55 1666.39C2524.3 1654.64 2538.57 1648.76 2554.94 1648.76C2554.94 1648.76 2707.71 1648.76 2707.71 1648.76ZM2544.87 1757.88L2717.78 1757.88L2717.78 1708.78C2717.78 1705.84 2716.94 1703.74 2714.85 1701.64C2712.75 1699.54 2710.65 1698.7 2707.71 1698.7L2554.94 1698.7C2552 1698.7 2549.91 1699.54 2547.81 1701.64C2545.71 1703.74 2544.87 1705.84 2544.87 1708.78C2544.87 1708.78 2544.87 1757.88 2544.87 1757.88Z"
      fill="#494368" fill-rule="nonzero" opacity="1" stroke="none" />
  </g>
  <g id="glasses">
    <path
      d="M424.649 707.297L424.249 707.297L424.249 1070.46C424.249 1234.63 582.408 1368.36 776.603 1368.36L1146.98 1368.36C1341.17 1368.36 1499.33 1234.63 1499.33 1070.46L1499.33 831.823L1691.52 831.823L1691.52 1070.46C1691.52 1234.63 1849.68 1368.36 2043.88 1368.36L2414.25 1368.36C2608.45 1368.36 2766.61 1234.63 2766.61 1070.46C2766.61 1070.46 2766.61 707.297 2766.61 707.297"
      fill="url(#LinearGradient_5)" fill-rule="nonzero" opacity="1" stroke="none" />
  </g>
</svg>
